<?xml version="1.0" encoding="UTF-8" ?>
<!DOCTYPE svg PUBLIC "-//W3C//DTD SVG 1.1//EN" "http://www.w3.org/Graphics/SVG/1.1/DTD/svg11.dtd">
<svg width="326pt" height="585pt" viewBox="0 0 326 585" version="1.1" xmlns="http://www.w3.org/2000/svg">
<g id="#69582bff">
<path fill="#69582b" opacity="1.00" d=" M 96.54 0.00 L 99.47 0.00 C 98.96 0.00 97.95 0.01 97.45 0.01 C 98.13 1.68 98.89 3.33 99.34 5.08 C 95.38 8.27 90.38 9.74 85.65 11.36 C 76.64 14.43 66.36 14.46 58.59 20.56 C 50.79 26.68 43.74 33.70 36.46 40.43 C 32.37 44.14 28.68 48.39 26.41 53.47 C 23.94 58.87 21.31 64.19 18.39 69.36 C 11.93 80.88 10.99 94.31 8.96 107.10 C 7.56 120.35 6.23 133.69 6.66 147.04 C 7.01 161.64 10.66 175.88 15.20 189.68 C 17.37 195.70 21.54 200.66 24.68 206.16 C 26.81 209.98 30.01 213.01 33.36 215.76 C 37.98 219.53 40.68 224.99 44.80 229.22 C 48.39 232.98 52.44 236.27 56.56 239.42 C 62.54 243.88 68.27 248.71 74.77 252.41 C 80.64 255.76 85.96 260.08 92.19 262.79 C 95.71 264.35 99.33 265.66 102.78 267.37 C 108.13 269.99 113.11 273.43 118.84 275.23 C 126.04 277.52 133.65 277.80 141.04 279.20 C 147.04 280.14 152.91 282.10 159.02 282.15 C 166.60 281.62 173.55 278.11 180.70 275.84 C 187.95 273.25 193.66 267.79 200.72 264.82 C 207.68 261.87 213.13 256.51 219.49 252.59 C 229.62 246.24 236.89 236.56 244.98 227.98 C 247.98 224.83 250.50 221.27 252.85 217.61 C 255.78 213.00 259.40 208.87 262.29 204.23 C 267.87 196.10 272.59 187.42 277.80 179.05 C 277.39 181.41 277.05 183.79 276.64 186.15 C 280.14 188.10 283.67 190.01 287.24 191.83 C 288.91 187.07 290.30 182.14 290.32 177.05 C 290.28 153.67 289.95 130.27 290.40 106.90 C 291.09 112.23 291.69 117.56 291.66 122.95 C 292.98 132.26 292.32 141.66 292.41 151.02 C 292.19 159.15 295.78 166.85 295.44 175.00 C 295.05 180.69 296.62 186.25 296.45 191.93 C 296.49 196.79 296.17 201.68 296.86 206.51 C 298.21 214.47 296.81 222.58 297.71 230.57 C 298.87 237.41 300.60 244.17 301.31 251.09 C 301.68 258.27 301.09 265.48 301.64 272.65 C 302.02 275.75 302.52 278.84 302.45 281.97 C 302.38 302.98 302.56 323.99 302.56 345.01 C 302.52 350.48 303.46 355.89 303.66 361.36 C 304.30 365.54 304.88 369.80 303.89 373.99 C 302.58 380.32 304.79 386.60 304.51 392.95 C 304.60 397.00 303.92 401.30 305.78 405.08 C 308.31 410.79 312.35 415.89 313.48 422.17 C 314.43 427.81 316.21 433.34 316.57 439.07 C 316.90 442.65 314.10 445.62 311.05 447.03 C 305.73 449.57 299.67 448.14 294.00 448.52 C 291.24 448.22 287.93 449.35 285.63 447.43 C 282.09 443.27 280.73 437.48 281.62 432.13 C 283.40 426.69 288.12 422.93 290.55 417.83 C 291.92 415.10 291.44 411.96 291.53 409.03 C 291.24 397.04 292.11 385.01 290.47 373.09 C 288.60 359.13 290.03 345.01 289.32 330.99 C 287.53 320.96 289.49 310.71 287.74 300.68 C 287.65 293.77 286.26 286.95 286.50 280.03 C 286.49 272.33 286.56 264.63 286.56 256.93 C 286.70 250.61 283.84 244.81 282.42 238.77 C 280.75 233.06 282.08 227.05 281.02 221.26 C 280.04 215.55 280.84 209.75 280.37 204.01 C 279.82 199.71 278.25 195.64 277.06 191.49 C 269.93 195.25 268.01 203.50 263.88 209.77 C 258.82 217.28 253.79 224.91 247.14 231.13 C 234.29 245.91 219.27 259.12 201.68 267.96 C 190.21 274.83 178.36 281.84 165.15 284.65 C 158.05 284.33 151.06 285.50 144.05 286.40 C 139.46 285.45 135.32 282.89 130.66 282.11 C 121.12 280.33 111.49 277.98 103.16 272.81 C 96.22 268.39 88.07 266.35 81.28 261.68 C 73.66 256.27 65.56 251.56 58.22 245.76 C 46.05 236.75 35.65 225.68 25.58 214.44 C 21.85 209.76 18.80 204.57 15.44 199.61 C 10.19 191.81 10.63 181.61 5.12 173.94 C 2.48 170.25 -0.18 166.26 0.00 161.52 L 0.00 102.52 C -0.21 96.50 6.73 94.42 8.23 89.13 C 10.57 81.81 11.33 73.92 15.14 67.12 C 17.99 62.19 20.61 57.14 23.06 52.02 C 26.26 45.27 31.47 39.85 36.15 34.14 C 39.78 29.70 44.53 26.43 49.15 23.12 C 53.83 19.81 58.03 15.71 63.35 13.41 C 69.27 10.72 76.03 10.10 81.58 6.56 C 84.64 4.71 87.24 2.14 90.50 0.63 C 92.48 0.17 94.52 0.11 96.54 0.00 M 293.01 269.61 C 291.26 274.07 291.66 278.94 291.21 283.62 C 290.77 288.29 290.50 293.01 291.11 297.69 C 292.06 305.43 291.60 313.23 291.61 321.00 C 291.62 335.66 291.76 350.33 291.61 365.00 C 291.45 371.06 293.36 376.92 293.59 382.95 C 293.69 394.41 296.02 406.08 292.97 417.37 C 291.26 422.53 286.25 425.85 284.76 431.12 C 284.11 434.77 285.62 439.41 289.48 440.59 C 294.20 442.29 299.09 443.60 304.05 444.30 C 307.53 444.87 312.14 443.03 312.36 439.04 C 313.12 430.49 311.74 421.40 306.91 414.14 C 304.99 411.05 302.68 408.14 301.38 404.71 C 300.28 401.90 300.87 398.84 301.00 395.93 C 301.56 389.73 299.85 383.57 300.65 377.37 C 301.82 367.50 301.63 357.51 300.70 347.63 C 299.87 339.16 300.85 330.64 299.97 322.18 C 299.55 315.98 298.34 309.81 298.85 303.58 C 299.64 294.80 298.43 286.02 297.91 277.26 C 297.34 274.43 296.77 269.35 293.01 269.61 Z" />
<path fill="#69582b" opacity="1.00" d=" M 163.36 0.00 L 167.56 0.00 C 173.57 -0.70 175.71 6.11 180.67 8.02 C 186.41 10.46 192.56 11.85 198.14 14.70 C 202.32 16.52 206.73 19.47 211.50 18.26 C 215.73 16.04 219.12 12.54 223.10 9.93 C 226.58 7.67 229.13 4.39 231.59 1.12 C 234.64 1.21 237.73 1.05 240.77 1.52 C 243.77 3.34 246.05 6.07 248.82 8.21 C 253.78 12.16 258.86 16.11 262.66 21.25 C 266.19 26.03 267.58 32.02 271.20 36.75 C 273.54 39.97 276.67 42.79 277.83 46.72 C 279.40 52.00 279.42 57.58 280.84 62.90 C 282.93 71.53 289.59 78.76 289.47 87.98 C 289.34 93.41 290.46 98.78 290.39 104.21 C 287.18 98.73 285.06 92.73 282.42 86.99 C 279.55 86.71 276.58 86.79 273.85 85.79 C 271.34 84.54 269.67 82.18 267.82 80.17 C 263.13 74.57 257.35 69.97 252.99 64.07 C 247.10 56.05 239.59 49.44 232.48 42.54 C 228.65 38.76 223.29 35.93 221.46 30.58 C 219.92 25.59 225.97 23.33 228.27 19.84 C 228.32 17.45 227.86 15.08 227.55 12.72 C 221.17 16.11 215.53 20.87 208.66 23.32 C 204.48 22.18 200.50 20.44 196.75 18.28 C 192.06 15.58 186.74 14.44 181.58 13.01 C 175.15 11.28 169.17 8.28 163.23 5.33 C 164.20 3.67 165.16 2.00 166.12 0.32 C 165.43 0.24 164.05 0.08 163.36 0.00 M 231.82 19.71 C 229.45 22.69 226.25 24.84 223.72 27.65 C 221.93 32.54 226.94 35.27 230.11 37.84 C 238.68 44.16 246.29 51.67 253.28 59.67 C 256.20 63.59 259.12 67.60 263.28 70.32 C 264.03 68.78 265.15 67.34 265.49 65.64 C 265.97 59.05 265.34 52.06 261.58 46.43 C 259.65 43.48 256.67 41.35 254.95 38.26 C 253.84 35.09 253.38 31.71 252.14 28.57 C 250.39 26.03 247.26 25.02 244.83 23.27 C 241.78 21.43 239.71 18.37 236.63 16.58 C 234.35 15.99 233.19 18.39 231.82 19.71 M 254.64 23.08 C 254.90 27.85 254.92 33.09 257.84 37.13 C 258.98 38.79 260.95 39.65 262.95 39.48 C 265.80 36.82 264.00 32.44 262.68 29.42 C 261.37 25.92 258.00 24.15 254.64 23.08 M 268.04 43.48 C 266.13 45.06 266.74 47.66 266.86 49.81 C 267.41 54.09 268.02 58.40 269.41 62.49 C 270.06 64.45 271.54 66.68 273.90 66.42 C 277.42 62.68 276.61 57.03 275.85 52.41 C 275.07 48.45 272.90 43.17 268.04 43.48 Z" />
</g>
<g id="#b05134ff">
<path fill="#b05134" opacity="1.00" d=" M 99.47 0.00 L 163.36 0.00 C 164.05 0.08 165.43 0.24 166.12 0.32 C 165.16 2.00 164.20 3.67 163.23 5.33 C 169.17 8.28 175.15 11.28 181.58 13.01 C 186.74 14.44 192.06 15.58 196.75 18.28 C 200.50 20.44 204.48 22.18 208.66 23.32 C 213.52 25.12 216.92 29.18 220.00 33.15 C 224.18 38.57 229.77 42.61 234.66 47.33 C 239.77 52.23 245.02 57.02 249.46 62.56 C 252.55 66.44 255.84 70.15 259.16 73.85 C 263.31 78.44 266.37 83.88 270.43 88.56 C 272.89 91.55 275.80 94.49 276.67 98.41 C 277.77 103.14 277.51 108.05 278.43 112.82 C 279.22 117.71 281.18 122.33 281.92 127.24 C 282.55 131.40 281.66 135.57 281.12 139.69 C 280.05 146.95 280.84 154.44 278.74 161.55 C 276.93 167.54 275.65 173.67 273.83 179.66 C 271.95 185.88 267.10 190.59 264.81 196.62 C 263.81 199.10 263.17 201.71 262.29 204.23 C 259.40 208.87 255.78 213.00 252.85 217.61 C 250.50 221.27 247.98 224.83 244.98 227.98 C 236.89 236.56 229.62 246.24 219.49 252.59 C 213.13 256.51 207.68 261.87 200.72 264.82 C 193.66 267.79 187.95 273.25 180.70 275.84 C 173.55 278.11 166.60 281.62 159.02 282.15 C 152.91 282.10 147.04 280.14 141.04 279.20 C 133.65 277.80 126.04 277.52 118.84 275.23 C 113.11 273.43 108.13 269.99 102.78 267.37 C 99.33 265.66 95.71 264.35 92.19 262.79 C 85.96 260.08 80.64 255.76 74.77 252.41 C 68.27 248.71 62.54 243.88 56.56 239.42 C 52.44 236.27 48.39 232.98 44.80 229.22 C 40.68 224.99 37.98 219.53 33.36 215.76 C 30.01 213.01 26.81 209.98 24.68 206.16 C 21.54 200.66 17.37 195.70 15.20 189.68 C 10.66 175.88 7.01 161.64 6.66 147.04 C 6.23 133.69 7.56 120.35 8.96 107.10 C 10.99 94.31 11.93 80.88 18.39 69.36 C 21.31 64.19 23.94 58.87 26.41 53.47 C 28.68 48.39 32.37 44.14 36.46 40.43 C 43.74 33.70 50.79 26.68 58.59 20.56 C 66.36 14.46 76.64 14.43 85.65 11.36 C 90.38 9.74 95.38 8.27 99.34 5.08 C 98.89 3.33 98.13 1.68 97.45 0.01 C 97.95 0.01 98.96 0.00 99.47 0.00 Z" />
</g>
<g id="#937b42ff">
<path fill="#937b42" opacity="1.00" d=" M 208.66 23.32 C 215.53 20.87 221.17 16.11 227.55 12.72 C 227.86 15.08 228.32 17.45 228.27 19.84 C 225.97 23.33 219.92 25.59 221.46 30.58 C 223.29 35.93 228.65 38.76 232.48 42.54 C 239.59 49.44 247.10 56.05 252.99 64.07 C 257.35 69.97 263.13 74.57 267.82 80.17 C 269.67 82.18 271.34 84.54 273.85 85.79 C 276.58 86.79 279.55 86.71 282.42 86.99 C 285.06 92.73 287.18 98.73 290.39 104.21 C 290.39 104.88 290.40 106.22 290.40 106.90 C 289.95 130.27 290.28 153.67 290.32 177.05 C 290.30 182.14 288.91 187.07 287.24 191.83 C 283.67 190.01 280.14 188.10 276.64 186.15 C 277.05 183.79 277.39 181.41 277.80 179.05 C 272.59 187.42 267.87 196.10 262.29 204.23 C 263.17 201.71 263.81 199.10 264.81 196.62 C 267.10 190.59 271.95 185.88 273.83 179.66 C 275.65 173.67 276.93 167.54 278.74 161.55 C 280.84 154.44 280.05 146.95 281.12 139.69 C 281.66 135.57 282.55 131.40 281.92 127.24 C 281.18 122.33 279.22 117.71 278.43 112.82 C 277.51 108.05 277.77 103.14 276.67 98.41 C 275.80 94.49 272.89 91.55 270.43 88.56 C 266.37 83.88 263.31 78.44 259.16 73.85 C 255.84 70.15 252.55 66.44 249.46 62.56 C 245.02 57.02 239.77 52.23 234.66 47.33 C 229.77 42.61 224.18 38.57 220.00 33.15 C 216.92 29.18 213.52 25.12 208.66 23.32 Z" />
<path fill="#937b42" opacity="1.00" d=" M 254.64 23.08 C 258.00 24.15 261.37 25.92 262.68 29.42 C 264.00 32.44 265.80 36.82 262.95 39.48 C 260.95 39.65 258.98 38.79 257.84 37.13 C 254.92 33.09 254.90 27.85 254.64 23.08 Z" />
<path fill="#937b42" opacity="1.00" d=" M 268.04 43.48 C 272.90 43.17 275.07 48.45 275.85 52.41 C 276.61 57.03 277.42 62.68 273.90 66.42 C 271.54 66.68 270.06 64.45 269.41 62.49 C 268.02 58.40 267.41 54.09 266.86 49.81 C 266.74 47.66 266.13 45.06 268.04 43.48 Z" />
<path fill="#937b42" opacity="1.00" d=" M 293.01 269.61 C 296.77 269.35 297.34 274.43 297.91 277.26 C 298.43 286.02 299.64 294.80 298.85 303.58 C 298.34 309.81 299.55 315.98 299.97 322.18 C 300.85 330.64 299.87 339.16 300.70 347.63 C 301.63 357.51 301.82 367.50 300.65 377.37 C 299.85 383.57 301.56 389.73 301.00 395.93 C 300.87 398.84 300.28 401.90 301.38 404.71 C 302.68 408.14 304.99 411.05 306.91 414.14 C 311.74 421.40 313.12 430.49 312.36 439.04 C 312.14 443.03 307.53 444.87 304.05 444.30 C 299.09 443.60 294.20 442.29 289.48 440.59 C 285.62 439.41 284.11 434.77 284.76 431.12 C 286.25 425.85 291.26 422.53 292.97 417.37 C 296.02 406.08 293.69 394.41 293.59 382.95 C 293.36 376.92 291.45 371.06 291.61 365.00 C 291.76 350.33 291.62 335.66 291.61 321.00 C 291.60 313.23 292.06 305.43 291.11 297.69 C 290.50 293.01 290.77 288.29 291.21 283.62 C 291.66 278.94 291.26 274.07 293.01 269.61 M 298.43 416.13 C 294.02 420.01 290.59 425.06 288.26 430.44 C 286.44 434.14 289.71 437.68 292.96 439.03 C 297.41 441.03 302.35 443.41 307.34 442.36 C 311.33 440.90 311.27 436.03 310.64 432.55 C 309.61 426.85 308.43 420.09 303.10 416.78 C 301.75 416.12 299.78 414.93 298.43 416.13 Z" />
</g>
<g id="#27262eff">
<path fill="#27262e" opacity="1.00" d=" M 70.37 312.39 C 78.17 305.60 89.03 304.26 98.98 304.01 C 135.44 303.98 171.90 304.01 208.36 304.00 C 208.38 376.66 208.39 449.33 208.36 521.99 C 228.90 522.01 249.45 522.00 270.00 522.00 C 281.35 522.00 293.27 521.36 303.88 526.13 C 311.83 529.61 317.41 537.36 319.08 545.77 C 321.22 556.32 319.11 568.43 311.04 576.05 C 304.47 582.43 295.00 583.97 286.27 585.00 L 71.69 585.00 C 63.30 584.19 54.34 582.89 47.57 577.43 C 40.31 571.64 36.92 562.10 37.21 552.99 C 37.11 543.50 41.25 533.65 49.30 528.28 C 56.85 523.35 66.15 522.26 74.96 522.02 C 99.54 521.97 124.13 522.02 148.72 521.99 C 148.63 470.34 148.64 418.69 148.71 367.04 C 132.47 367.01 116.23 367.07 100.00 367.02 C 91.04 366.85 81.61 365.94 73.80 361.17 C 65.90 356.32 61.28 347.21 60.92 338.07 C 60.18 328.70 63.11 318.67 70.37 312.39 Z" />
</g>
<g id="#cdc03dff">
<path fill="#cdc03d" opacity="1.00" d=" M 298.43 416.13 C 299.78 414.93 301.75 416.12 303.10 416.78 C 308.43 420.09 309.61 426.85 310.64 432.55 C 311.27 436.03 311.33 440.90 307.34 442.36 C 302.35 443.41 297.41 441.03 292.96 439.03 C 289.71 437.68 286.44 434.14 288.26 430.44 C 290.59 425.06 294.02 420.01 298.43 416.13 Z" />
</g>
</svg>
