<?xml version="1.0" encoding="UTF-8" ?>
<!DOCTYPE svg PUBLIC "-//W3C//DTD SVG 1.1//EN" "http://www.w3.org/Graphics/SVG/1.1/DTD/svg11.dtd">
<svg width="512pt" height="512pt" viewBox="0 0 512 512" version="1.1" xmlns="http://www.w3.org/2000/svg">
<g id="#000000ff">
<path fill="#000000" opacity="1.00" d=" M 206.35 70.28 C 240.10 61.60 276.09 61.93 309.65 71.34 C 346.09 81.43 379.46 102.18 404.71 130.32 C 425.66 153.53 440.99 181.77 449.04 211.99 C 461.55 257.42 457.01 307.19 436.70 349.69 C 421.67 381.49 398.12 409.26 369.02 429.06 C 363.53 432.99 357.55 436.17 351.88 439.84 C 370.60 440.30 389.34 439.75 408.06 440.08 C 414.24 439.80 417.97 447.65 414.51 452.53 C 412.80 455.48 409.17 456.09 406.05 456.03 C 380.68 455.98 355.31 455.98 329.94 456.03 C 327.27 455.98 324.23 455.81 322.33 453.67 C 319.67 451.21 320.04 447.29 319.94 444.01 C 320.12 418.65 319.84 393.29 320.08 367.94 C 319.83 362.44 326.25 358.57 331.12 360.82 C 334.43 362.01 336.15 365.54 335.99 368.92 C 336.14 389.19 335.80 409.47 336.13 429.73 C 366.38 415.07 392.56 392.00 410.65 363.64 C 432.10 330.51 442.36 290.34 439.56 250.98 C 437.17 219.14 426.57 187.86 408.66 161.39 C 391.80 136.19 368.53 115.36 341.72 101.25 C 308.53 83.67 269.84 76.63 232.59 81.55 C 197.97 85.93 164.68 100.44 137.98 122.93 C 110.99 145.39 90.70 175.80 80.35 209.35 C 70.61 240.53 69.32 274.31 76.89 306.10 C 84.85 340.14 102.76 371.80 127.90 396.11 C 148.47 416.18 173.89 431.28 201.37 439.69 C 204.83 440.72 208.58 443.12 208.76 447.11 C 209.54 451.89 204.81 456.49 200.09 455.85 C 196.37 455.30 192.89 453.83 189.36 452.64 C 160.65 442.53 134.30 425.75 113.07 403.93 C 90.13 380.56 73.12 351.44 63.98 320.00 C 54.99 289.24 53.52 256.32 59.89 224.91 C 66.98 188.69 84.52 154.64 109.70 127.69 C 135.55 99.85 169.51 79.62 206.35 70.28 Z" />
</g>
</svg>
